<svg xmlns="http://www.w3.org/2000/svg" width="788px" height="799px" viewBox="0 0 788 799" xmlns:xlink="http://www.w3.org/1999/xlink" style="overflow: hidden; display: block; width: 788px; height: 799px;"><rect width="788px" height="799px" fill="white"/><defs><path fill="rgb(43,43,43)" stroke="rgb(43,43,43)" d="M 0,0 L 10,-5 L 5,0 L 10,5 Z" fill-opacity="1" stroke-opacity="1" stroke-width="1" stroke-linecap="butt" stroke-linejoin="miter" stroke-miterlimit="10" id="ygc50_0"/><path fill="rgb(43,43,43)" stroke="rgb(43,43,43)" d="M 0,0 L 10,-5 L 5,0 L 10,5 Z" fill-opacity="1" stroke-opacity="1" stroke-width="1" stroke-linecap="butt" stroke-linejoin="miter" stroke-miterlimit="10" id="ygc50_1"/><path fill="rgb(43,43,43)" stroke="rgb(43,43,43)" d="M 0,0 L 10,-5 L 5,0 L 10,5 Z" fill-opacity="1" stroke-opacity="1" stroke-width="1" stroke-linecap="butt" stroke-linejoin="miter" stroke-miterlimit="10" id="ygc50_2"/><path fill="rgb(43,43,43)" stroke="rgb(43,43,43)" d="M 0,0 L 10,-5 L 5,0 L 10,5 Z" fill-opacity="1" stroke-opacity="1" stroke-width="1" stroke-linecap="butt" stroke-linejoin="miter" stroke-miterlimit="10" id="ygc50_3"/><path fill="rgb(43,43,43)" stroke="rgb(43,43,43)" d="M 0,0 L 10,-5 L 5,0 L 10,5 Z" fill-opacity="1" stroke-opacity="1" stroke-width="1" stroke-linecap="butt" stroke-linejoin="miter" stroke-miterlimit="10" id="ygc50_4"/><path fill="rgb(43,43,43)" stroke="rgb(43,43,43)" d="M 0,0 L 10,-5 L 5,0 L 10,5 Z" fill-opacity="1" stroke-opacity="1" stroke-width="1" stroke-linecap="butt" stroke-linejoin="miter" stroke-miterlimit="10" id="ygc50_5"/><path fill="rgb(43,43,43)" stroke="rgb(43,43,43)" d="M 0,0 L 10,-5 L 5,0 L 10,5 Z" fill-opacity="1" stroke-opacity="1" stroke-width="1" stroke-linecap="butt" stroke-linejoin="miter" stroke-miterlimit="10" id="ygc50_6"/><path fill="rgb(43,43,43)" stroke="rgb(43,43,43)" d="M 0,0 L 10,-5 L 5,0 L 10,5 Z" fill-opacity="1" stroke-opacity="1" stroke-width="1" stroke-linecap="butt" stroke-linejoin="miter" stroke-miterlimit="10" id="ygc50_7"/><path fill="rgb(43,43,43)" stroke="rgb(43,43,43)" d="M 0,0 L 10,-5 L 5,0 L 10,5 Z" fill-opacity="1" stroke-opacity="1" stroke-width="1" stroke-linecap="butt" stroke-linejoin="miter" stroke-miterlimit="10" id="ygc50_8"/><path fill="rgb(43,43,43)" stroke="rgb(43,43,43)" d="M 0,0 L 10,-5 L 5,0 L 10,5 Z" fill-opacity="1" stroke-opacity="1" stroke-width="1" stroke-linecap="butt" stroke-linejoin="miter" stroke-miterlimit="10" id="ygc50_9"/><path fill="rgb(43,43,43)" stroke="rgb(43,43,43)" d="M 0,0 L 10,-5 L 5,0 L 10,5 Z" fill-opacity="1" stroke-opacity="1" stroke-width="1" stroke-linecap="butt" stroke-linejoin="miter" stroke-miterlimit="10" id="ygc50_10"/><path fill="rgb(43,43,43)" stroke="rgb(43,43,43)" d="M 0,0 L 10,-5 L 5,0 L 10,5 Z" fill-opacity="1" stroke-opacity="1" stroke-width="1" stroke-linecap="butt" stroke-linejoin="miter" stroke-miterlimit="10" id="ygc50_11"/><path fill="rgb(43,43,43)" stroke="rgb(43,43,43)" d="M 0,0 L 10,-5 L 5,0 L 10,5 Z" fill-opacity="1" stroke-opacity="1" stroke-width="1" stroke-linecap="butt" stroke-linejoin="miter" stroke-miterlimit="10" id="ygc50_12"/></defs><g style="pointer-events:visiblePainted" transform="matrix(1.7 0 0 1.7 33.60000000000002 42.5)" image-rendering="auto" shape-rendering="auto"><g><path fill="none" stroke="rgb(43,43,43)" d="M 193,29.523687548277813 L 193,89 Q 193,105 209,105 L 258.5,105 Q 274.5,105 274.5,121 L 274.5,152.00961894323342" stroke-opacity="1" stroke-width="0.5" stroke-linecap="butt" stroke-linejoin="miter" stroke-miterlimit="10"/><use xlink:href="#ygc50_0" transform="matrix(0 -0.5 0.5 0 274.5 154.50961894323342)" style="pointer-events: none;"/></g><g><path fill="none" stroke="rgb(43,43,43)" d="M 200.5,24.921567416492216 L 200.5,29 Q 200.5,45 216.5,45 L 373,45 Q 389,45 389,61 L 389,150" stroke-opacity="1" stroke-width="0.5" stroke-linecap="butt" stroke-linejoin="miter" stroke-miterlimit="10"/><use xlink:href="#ygc50_1" transform="matrix(0 -0.5 0.5 0 389 152.5)" style="pointer-events: none;"/></g><g><path fill="none" stroke="rgb(43,43,43)" d="M 267,184 L 267,261.0096189432334" stroke-opacity="1" stroke-width="0.5" stroke-linecap="butt" stroke-linejoin="miter" stroke-miterlimit="10"/><use xlink:href="#ygc50_2" transform="matrix(0 -0.5 0.5 0 267 263.5096189432334)" style="pointer-events: none;"/></g><g><path fill="none" stroke="rgb(43,43,43)" d="M 185.5,29.523687548277813 L 185.5,152.00961894323342" stroke-opacity="1" stroke-width="0.5" stroke-linecap="butt" stroke-linejoin="miter" stroke-miterlimit="10"/><use xlink:href="#ygc50_3" transform="matrix(0 -0.5 0.5 0 185.5 154.50961894323342)" style="pointer-events: none;"/></g><g><path fill="none" stroke="rgb(43,43,43)" d="M 92.5,87.99038105676658 L 92.5,108 Q 92.5,124 76.5,124 L 73.5,124 Q 57.5,124 57.5,140 L 57.5,152.00961894323342" stroke-opacity="1" stroke-width="0.5" stroke-linecap="butt" stroke-linejoin="miter" stroke-miterlimit="10"/><use xlink:href="#ygc50_4" transform="matrix(0 -0.5 0.5 0 57.5 154.50961894323342)" style="pointer-events: none;"/></g><g><path fill="none" stroke="rgb(43,43,43)" d="M 107.5,87.99038105676658 L 107.5,123 Q 107.5,139 123.5,139 L 246.49038105676658,139 Q 259.5,139 259.5,152.00961894323342 L 259.5,152.00961894323342" stroke-opacity="1" stroke-width="0.5" stroke-linecap="butt" stroke-linejoin="miter" stroke-miterlimit="10"/><use xlink:href="#ygc50_5" transform="matrix(0 -0.5 0.5 0 259.5 154.50961894323342)" style="pointer-events: none;"/></g><g><path fill="none" stroke="rgb(43,43,43)" d="M 274.5,293 L 274.5,323" stroke-opacity="1" stroke-width="0.5" stroke-linecap="butt" stroke-linejoin="miter" stroke-miterlimit="10"/><use xlink:href="#ygc50_6" transform="matrix(0 -0.5 0.5 0 274.5 325.5)" style="pointer-events: none;"/></g><g><path fill="none" stroke="rgb(43,43,43)" d="M 321.5,90 L 321.5,232 Q 321.5,248 305.5,248 L 295.0096189432334,248 Q 282,248 282,261.0096189432334 L 282,261.0096189432334" stroke-opacity="1" stroke-width="0.5" stroke-linecap="butt" stroke-linejoin="miter" stroke-miterlimit="10"/><use xlink:href="#ygc50_7" transform="matrix(0 -0.5 0.5 0 282 263.5096189432334)" style="pointer-events: none;"/></g><g><path fill="none" stroke="rgb(43,43,43)" d="M 311.5,86.18033988749895 L 311.5,108 Q 311.5,124 295.5,124 L 216.5,124 Q 200.5,124 200.5,140 L 200.5,152.00961894323342" stroke-opacity="1" stroke-width="0.5" stroke-linecap="butt" stroke-linejoin="miter" stroke-miterlimit="10"/><use xlink:href="#ygc50_8" transform="matrix(0 -0.5 0.5 0 200.5 154.50961894323342)" style="pointer-events: none;"/></g><g><path fill="none" stroke="rgb(43,43,43)" d="M 257,180.18033988749895 L 257,202 Q 257,218 241,218 L 186,218 Q 170,218 170,234 L 170,259" stroke-opacity="1" stroke-width="0.5" stroke-linecap="butt" stroke-linejoin="miter" stroke-miterlimit="10"/><use xlink:href="#ygc50_9" transform="matrix(0 -0.5 0.5 0 170 261.5)" style="pointer-events: none;"/></g><g><path fill="none" stroke="rgb(43,43,43)" d="M 277,180.18033988749895 L 277,217 Q 277,233 293,233 L 353,233 Q 369,233 369,249 L 369,259" stroke-opacity="1" stroke-width="0.5" stroke-linecap="butt" stroke-linejoin="miter" stroke-miterlimit="10"/><use xlink:href="#ygc50_10" transform="matrix(0 -0.5 0.5 0 369 261.5)" style="pointer-events: none;"/></g><g><path fill="none" stroke="rgb(43,43,43)" d="M 331.5,86.18033988749895 L 331.5,202 Q 331.5,218 347.5,218 L 368,218 Q 384,218 384,234 L 384,259" stroke-opacity="1" stroke-width="0.5" stroke-linecap="butt" stroke-linejoin="miter" stroke-miterlimit="10"/><use xlink:href="#ygc50_11" transform="matrix(0 -0.5 0.5 0 384 261.5)" style="pointer-events: none;"/></g><g><path fill="none" stroke="rgb(43,43,43)" d="M 50,184 L 50,259" stroke-opacity="1" stroke-width="0.5" stroke-linecap="butt" stroke-linejoin="miter" stroke-miterlimit="10"/><use xlink:href="#ygc50_12" transform="matrix(0 -0.5 0.5 0 50 261.5)" style="pointer-events: none;"/></g><g><path fill="none" stroke="rgb(43,43,43)" d="M 178,24.921567416492216 L 178,29 Q 178,45 162,45 L 58.5,45 Q 42.5,45 42.5,61 L 42.5,152.00961894323342" stroke-opacity="1" stroke-width="0.5" stroke-linecap="butt" stroke-linejoin="miter" stroke-miterlimit="10"/><use xlink:href="#ygc50_0" transform="matrix(0 -0.5 0.5 0 42.5 154.50961894323342)" style="pointer-events: none;"/></g><ellipse fill="rgb(165,164,164)" fill-opacity="1" stroke="rgb(165,164,164)" stroke-opacity="1" stroke-width="1" stroke-linecap="butt" stroke-linejoin="miter" stroke-miterlimit="10" rx="15" cy="169" ry="15" cx="389"/><ellipse fill="rgb(165,164,164)" fill-opacity="1" stroke="rgb(165,164,164)" stroke-opacity="1" stroke-width="1" stroke-linecap="butt" stroke-linejoin="miter" stroke-miterlimit="10" rx="15" cy="169" ry="15" cx="50"/><ellipse fill="rgb(165,164,164)" fill-opacity="1" stroke="rgb(165,164,164)" stroke-opacity="1" stroke-width="1" stroke-linecap="butt" stroke-linejoin="miter" stroke-miterlimit="10" rx="15" cy="75" ry="15" cx="321.5"/><ellipse fill="rgb(165,164,164)" fill-opacity="1" stroke="rgb(165,164,164)" stroke-opacity="1" stroke-width="1" stroke-linecap="butt" stroke-linejoin="miter" stroke-miterlimit="10" rx="15" cy="75" ry="15" cx="100"/><ellipse fill="rgb(165,164,164)" fill-opacity="1" stroke="rgb(165,164,164)" stroke-opacity="1" stroke-width="1" stroke-linecap="butt" stroke-linejoin="miter" stroke-miterlimit="10" rx="15" cy="169" ry="15" cx="193"/><ellipse fill="rgb(165,164,164)" fill-opacity="1" stroke="rgb(165,164,164)" stroke-opacity="1" stroke-width="1" stroke-linecap="butt" stroke-linejoin="miter" stroke-miterlimit="10" rx="15" cy="15" ry="15" cx="189.25"/><ellipse fill="rgb(165,164,164)" fill-opacity="1" stroke="rgb(165,164,164)" stroke-opacity="1" stroke-width="1" stroke-linecap="butt" stroke-linejoin="miter" stroke-miterlimit="10" rx="15" cy="278" ry="15" cx="274.5"/><ellipse fill="rgb(165,164,164)" fill-opacity="1" stroke="rgb(165,164,164)" stroke-opacity="1" stroke-width="1" stroke-linecap="butt" stroke-linejoin="miter" stroke-miterlimit="10" rx="15" cy="169" ry="15" cx="267"/><ellipse fill="rgb(165,164,164)" fill-opacity="1" stroke="rgb(165,164,164)" stroke-opacity="1" stroke-width="1" stroke-linecap="butt" stroke-linejoin="miter" stroke-miterlimit="10" rx="15" cy="342" ry="15" cx="274.5"/><rect fill="rgb(165,164,164)" stroke="rgb(165,164,164)" stroke-opacity="1" stroke-width="1" stroke-linecap="butt" stroke-linejoin="miter" stroke-miterlimit="10" fill-opacity="1" x="155" height="30" width="30" y="263"/><rect fill="rgb(165,164,164)" stroke="rgb(165,164,164)" stroke-opacity="1" stroke-width="1" stroke-linecap="butt" stroke-linejoin="miter" stroke-miterlimit="10" fill-opacity="1" x="361.5" height="30" width="30" y="263"/><rect fill="rgb(165,164,164)" stroke="rgb(165,164,164)" stroke-opacity="1" stroke-width="1" stroke-linecap="butt" stroke-linejoin="miter" stroke-miterlimit="10" fill-opacity="1" x="35" height="30" width="30" y="263"/><g transform="translate(361.5 189)"><rect fill="rgb(255,255,255)" stroke="rgb(255,255,255)" fill-opacity="1" stroke-opacity="1" stroke-width="1" stroke-linecap="butt" stroke-linejoin="miter" stroke-miterlimit="10" x="0" height="14" width="55" y="0"/><text font-family="'Arial'" font-size="12px" font-style="normal" font-weight="normal" text-decoration="none" text-anchor="middle" fill="rgb(0,0,0)" fill-opacity="1" dy="0.9166666666666666em" transform="translate(27.5 0)">Statement</text></g><g transform="translate(31 189)"><rect fill="rgb(255,255,255)" stroke="rgb(255,255,255)" fill-opacity="1" stroke-opacity="1" stroke-width="1" stroke-linecap="butt" stroke-linejoin="miter" stroke-miterlimit="10" x="0" height="14" width="38" y="0"/><text font-family="'Arial'" font-size="12px" font-style="normal" font-weight="normal" text-decoration="none" text-anchor="middle" fill="rgb(0,0,0)" fill-opacity="1" dy="0.9166666666666666em" transform="translate(19 0)">Variant</text></g><g transform="translate(296.5 95)"><rect fill="rgb(255,255,255)" stroke="rgb(255,255,255)" fill-opacity="1" stroke-opacity="1" stroke-width="1" stroke-linecap="butt" stroke-linejoin="miter" stroke-miterlimit="10" x="0" height="14" width="50" y="0"/><text font-family="'Arial'" font-size="12px" font-style="normal" font-weight="normal" text-decoration="none" text-anchor="middle" fill="rgb(0,0,0)" fill-opacity="1" dy="0.9166666666666666em" transform="translate(25 0)">Evidence</text></g><g transform="translate(72.5 95)"><rect fill="rgb(255,255,255)" stroke="rgb(255,255,255)" fill-opacity="1" stroke-opacity="1" stroke-width="1" stroke-linecap="butt" stroke-linejoin="miter" stroke-miterlimit="10" x="0" height="14" width="55" y="0"/><text font-family="'Arial'" font-size="12px" font-style="normal" font-weight="normal" text-decoration="none" text-anchor="middle" fill="rgb(0,0,0)" fill-opacity="1" dy="0.9166666666666666em" transform="translate(27.5 0)">Biomarker</text></g><g transform="translate(173.5 189)"><rect fill="rgb(255,255,255)" stroke="rgb(255,255,255)" fill-opacity="1" stroke-opacity="1" stroke-width="1" stroke-linecap="butt" stroke-linejoin="miter" stroke-miterlimit="10" x="0" height="14" width="39" y="0"/><text font-family="'Arial'" font-size="12px" font-style="normal" font-weight="normal" text-decoration="none" text-anchor="middle" fill="rgb(0,0,0)" fill-opacity="1" dy="0.9166666666666666em" transform="translate(19.5 0)">Source</text></g><g transform="translate(184.75 35)"><rect fill="rgb(255,255,255)" stroke="rgb(255,255,255)" fill-opacity="1" stroke-opacity="1" stroke-width="1" stroke-linecap="butt" stroke-linejoin="miter" stroke-miterlimit="10" x="0" height="14" width="9" y="0"/><text font-family="'Arial'" font-size="12px" font-style="normal" font-weight="normal" text-decoration="none" text-anchor="middle" fill="rgb(0,0,0)" fill-opacity="1" dy="0.9166666666666666em" transform="translate(4.5 0)">V</text></g><g transform="translate(245 298)"><rect fill="rgb(255,255,255)" stroke="rgb(255,255,255)" fill-opacity="1" stroke-opacity="1" stroke-width="1" stroke-linecap="butt" stroke-linejoin="miter" stroke-miterlimit="10" x="0" height="14" width="59" y="0"/><text font-family="'Arial'" font-size="12px" font-style="normal" font-weight="normal" text-decoration="none" text-anchor="middle" fill="rgb(0,0,0)" fill-opacity="1" dy="0.9166666666666666em" transform="translate(29.5 0)">Publication</text></g><g transform="translate(242.5 189)"><rect fill="rgb(255,255,255)" stroke="rgb(255,255,255)" fill-opacity="1" stroke-opacity="1" stroke-width="1" stroke-linecap="butt" stroke-linejoin="miter" stroke-miterlimit="10" x="0" height="14" width="49" y="0"/><text font-family="'Arial'" font-size="12px" font-style="normal" font-weight="normal" text-decoration="none" text-anchor="middle" fill="rgb(0,0,0)" fill-opacity="1" dy="0.9166666666666666em" transform="translate(24.5 0)">Ontology</text></g><g transform="translate(252 362)"><rect fill="rgb(255,255,255)" stroke="rgb(255,255,255)" fill-opacity="1" stroke-opacity="1" stroke-width="1" stroke-linecap="butt" stroke-linejoin="miter" stroke-miterlimit="10" x="0" height="14" width="45" y="0"/><text font-family="'Arial'" font-size="12px" font-style="normal" font-weight="normal" text-decoration="none" text-anchor="middle" fill="rgb(0,0,0)" fill-opacity="1" dy="0.9166666666666666em" transform="translate(22.5 0)">Abstract</text></g><g transform="translate(125 298)"><rect fill="rgb(255,255,255)" stroke="rgb(255,255,255)" fill-opacity="1" stroke-opacity="1" stroke-width="1" stroke-linecap="butt" stroke-linejoin="miter" stroke-miterlimit="10" x="0" height="122" width="90" y="0"/><text font-family="'Arial'" font-size="12px" font-style="normal" font-weight="normal" text-decoration="none" text-anchor="middle" fill="rgb(0,0,0)" fill-opacity="1" transform="translate(45 0)"><tspan dy="0.9166666666666666em" x="0">Disease</tspan><tspan dy="1.5em" x="0">Pathway</tspan><tspan dy="1.5em" x="0">Signature</tspan><tspan dy="1.5em" x="0">Vocabulary</tspan><tspan dy="1.5em" x="0">AnatomicalEntity</tspan><tspan dy="1.5em" x="0">Therapy</tspan><tspan dy="1.5em" x="0">Feature</tspan></text></g><g transform="translate(334 298)"><rect fill="rgb(255,255,255)" stroke="rgb(255,255,255)" fill-opacity="1" stroke-opacity="1" stroke-width="1" stroke-linecap="butt" stroke-linejoin="miter" stroke-miterlimit="10" x="0" height="50" width="85" y="0"/><text font-family="'Arial'" font-size="12px" font-style="normal" font-weight="normal" text-decoration="none" text-anchor="middle" fill="rgb(0,0,0)" fill-opacity="1" transform="translate(42.5 0)"><tspan dy="0.9166666666666666em" x="0">ClinicalTrial</tspan><tspan dy="1.5em" x="0">CuratedContent</tspan><tspan dy="1.5em" x="0">EvidenceLevel</tspan></text></g><g transform="translate(5 298)"><rect fill="rgb(255,255,255)" stroke="rgb(255,255,255)" fill-opacity="1" stroke-opacity="1" stroke-width="1" stroke-linecap="butt" stroke-linejoin="miter" stroke-miterlimit="10" x="0" height="32" width="90" y="0"/><text font-family="'Arial'" font-size="12px" font-style="normal" font-weight="normal" text-decoration="none" text-anchor="middle" fill="rgb(0,0,0)" fill-opacity="1" transform="translate(45 0)"><tspan dy="0.9166666666666666em" x="0">PositionalVariant</tspan><tspan dy="1.5em" x="0">CategoryVariant</tspan></text></g></g></svg>