<?xml version="1.0" encoding="iso-8859-1"?>
<!-- Generator: Adobe Illustrator 18.0.0, SVG Export Plug-In . SVG Version: 6.00 Build 0)  -->
<!DOCTYPE svg PUBLIC "-//W3C//DTD SVG 1.1//EN" "http://www.w3.org/Graphics/SVG/1.1/DTD/svg11.dtd">
<svg version="1.1" id="Capa_1"
	xmlns="http://www.w3.org/2000/svg"
	xmlns:xlink="http://www.w3.org/1999/xlink" x="0px" y="0px" viewBox="0 0 297 297" width="200px" style="enable-background:new 0 0 297 297;" xml:space="preserve">
	<path d="M296.239,57.775c-0.507-3.569-2.988-6.546-6.407-7.686c-3.422-1.141-7.19-0.252-9.74,2.299l-29.061,29.077l-29.61-5.925
	l-5.923-29.64l29.063-29.085c2.547-2.549,3.434-6.319,2.294-9.738c-1.142-3.418-4.117-5.898-7.686-6.404
	C236.033,0.226,232.835,0,229.664,0c-17.969,0-34.857,7-47.553,19.71c-15.446,15.459-22.362,37.656-18.697,59.042l-84.62,84.676
	c-3.786-0.652-7.628-0.982-11.478-0.982c-17.958,0-34.84,6.995-47.534,19.696c-15.097,15.106-22.03,35.914-19.021,57.087
	c0.507,3.568,2.988,6.545,6.408,7.686c3.417,1.14,7.19,0.25,9.739-2.299l29.061-29.077l29.612,5.926l5.922,29.641l-29.062,29.081
	c-2.547,2.549-3.435,6.319-2.295,9.737c1.142,3.419,4.116,5.898,7.685,6.405c3.137,0.446,6.336,0.673,9.508,0.673
	c0,0,0.002,0,0.003,0c17.964,0,34.849-6.999,47.547-19.707c15.447-15.461,22.364-37.657,18.697-59.046l84.618-84.675
	c3.788,0.653,7.632,0.983,11.482,0.983c17.96,0,34.84-6.995,47.532-19.697C292.315,99.752,299.247,78.947,296.239,57.775z
	 M190.879,115.237l-75.302,75.908c-1.302,1.313-3.015,1.969-4.728,1.969c-1.695,0-3.391-0.643-4.69-1.931
	c-2.611-2.59-2.628-6.807-0.038-9.417l75.302-75.908c2.591-2.612,6.806-2.629,9.417-0.038
	C193.452,108.41,193.469,112.626,190.879,115.237z"/>

</svg>
